<svg width="140" height="70" viewBox="0 0 140 70" fill="none" xmlns="http://www.w3.org/2000/svg">
<path d="M61.7944 42.431H77.1257V14.6472H61.7944V42.431Z" fill="#FF723A"/>
<path d="M62.7684 28.5391C62.7684 22.9027 65.3856 17.883 69.4605 14.6472C66.4797 12.2806 62.7197 10.869 58.6323 10.869C48.9558 10.869 41.1119 18.7806 41.1119 28.5391C41.1119 38.2975 48.9558 46.2091 58.6323 46.2091C62.7197 46.2091 66.4797 44.7975 69.4605 42.431C65.3856 39.1953 62.7684 34.1755 62.7684 28.5391Z" fill="#F53B4A"/>
<path d="M80.2888 46.2015C76.2014 46.2015 72.4414 44.7901 69.4617 42.424C73.5366 39.1902 76.1528 34.1702 76.1528 28.5347C76.1528 22.8993 73.5366 17.8805 69.4617 14.6453C72.4414 12.2804 76.2014 10.869 80.2888 10.869C89.9653 10.869 97.8092 18.778 97.8092 28.5347C97.8092 38.2925 89.9653 46.2015 80.2888 46.2015Z" fill="#FFB32B"/>
<path d="M97.6279 41.5185V40.1482H97.3083L96.9417 41.0914L96.5754 40.1482H96.2558V41.5185H96.4797V40.4839L96.8238 41.3768H97.0578L97.402 40.4816V41.5185H97.6279Z" fill="#FFB32B"/>
<path d="M95.7172 41.5185V40.3792H96.2558V40.1482H94.8837V40.3792H95.4224V41.5185H95.7172Z" fill="#FFB32B"/>
<path d="M104.133 59.1055V59.2557H104.272C104.303 59.2557 104.328 59.2498 104.348 59.238C104.367 59.2245 104.376 59.2052 104.376 59.1799C104.376 59.1547 104.367 59.1368 104.348 59.1235C104.328 59.1117 104.303 59.1055 104.272 59.1055H104.133ZM104.273 59C104.346 59 104.401 59.0164 104.441 59.0476C104.48 59.0804 104.499 59.125 104.499 59.1799C104.499 59.226 104.484 59.2647 104.453 59.296C104.422 59.3257 104.377 59.3436 104.319 59.351L104.504 59.5635H104.36L104.188 59.3524H104.133V59.5635H104.013V59H104.273ZM104.238 59.757C104.303 59.757 104.364 59.745 104.421 59.7198C104.477 59.696 104.526 59.6617 104.569 59.6186C104.612 59.5756 104.645 59.5264 104.67 59.4684C104.694 59.4105 104.706 59.3495 104.706 59.2842C104.706 59.2186 104.694 59.1576 104.67 59.0996C104.645 59.0417 104.612 58.9925 104.569 58.9495C104.526 58.9064 104.477 58.8736 104.421 58.8485C104.364 58.8246 104.303 58.8126 104.238 58.8126C104.171 58.8126 104.108 58.8246 104.05 58.8485C103.992 58.8736 103.943 58.9064 103.9 58.9495C103.857 58.9925 103.824 59.0417 103.799 59.0996C103.775 59.1576 103.763 59.2186 103.763 59.2842C103.763 59.3495 103.775 59.4105 103.799 59.4684C103.824 59.5264 103.857 59.5756 103.9 59.6186C103.943 59.6617 103.992 59.696 104.05 59.7198C104.108 59.745 104.171 59.757 104.238 59.757ZM104.238 58.6773C104.322 58.6773 104.403 58.6922 104.479 58.725C104.553 58.7562 104.618 58.7993 104.675 58.8544C104.73 58.9092 104.774 58.9748 104.807 59.0476C104.838 59.1219 104.855 59.2009 104.855 59.2842C104.855 59.3672 104.838 59.4461 104.807 59.5189C104.774 59.5933 104.73 59.6573 104.675 59.7124C104.618 59.7673 104.553 59.8106 104.479 59.8431C104.403 59.8759 104.322 59.8908 104.238 59.8908C104.15 59.8908 104.068 59.8759 103.992 59.8431C103.916 59.8106 103.851 59.7673 103.796 59.7124C103.739 59.6573 103.696 59.5933 103.663 59.5189C103.632 59.4461 103.616 59.3672 103.616 59.2842C103.616 59.2009 103.632 59.1219 103.663 59.0476C103.696 58.9748 103.739 58.9092 103.796 58.8544C103.851 58.7993 103.916 58.7562 103.992 58.725C104.068 58.6922 104.15 58.6773 104.238 58.6773ZM47.2344 56.5078C47.2344 55.4342 47.9366 54.5524 49.0877 54.5524C50.187 54.5524 50.9279 55.3956 50.9279 56.5078C50.9279 57.6201 50.187 58.4633 49.0877 58.4633C47.9366 58.4633 47.2344 57.5814 47.2344 56.5078ZM52.1803 56.5078V53.4534H50.852V54.1956C50.4296 53.6454 49.7899 53.3004 48.9213 53.3004C47.2078 53.3004 45.8659 54.6431 45.8659 56.5078C45.8659 58.3741 47.2078 59.7152 48.9213 59.7152C49.7899 59.7152 50.4296 59.3703 50.852 58.8216V59.562H52.1803V56.5078ZM97.0738 56.5078C97.0738 55.4342 97.7773 54.5524 98.9273 54.5524C100.026 54.5524 100.769 55.3956 100.769 56.5078C100.769 57.6201 100.026 58.4633 98.9273 58.4633C97.7773 58.4633 97.0738 57.5814 97.0738 56.5078ZM102.021 56.5078V51H100.691V54.1956C100.27 53.6454 99.6308 53.3004 98.762 53.3004C97.0484 53.3004 95.7068 54.6431 95.7068 56.5078C95.7068 58.3741 97.0484 59.7152 98.762 59.7152C99.6308 59.7152 100.27 59.3703 100.691 58.8216V59.562H102.021V56.5078ZM68.6705 54.4885C69.5272 54.4885 70.0761 55.0252 70.2174 55.9711H67.0476C67.1874 55.0893 67.7244 54.4885 68.6705 54.4885ZM68.6958 53.3004C66.9064 53.3004 65.654 54.6044 65.654 56.5078C65.654 58.4499 66.9584 59.7152 68.7866 59.7152C69.7057 59.7152 70.5491 59.4848 71.2913 58.8587L70.6399 57.8759C70.1282 58.2849 69.4767 58.5138 68.8622 58.5138C68.0057 58.5138 67.2261 58.1183 67.0343 57.0194H71.5725C71.5859 56.8528 71.5977 56.6862 71.5977 56.5078C71.5859 54.6044 70.4094 53.3004 68.6958 53.3004ZM84.7381 56.5078C84.7381 55.4342 85.4418 54.5524 86.593 54.5524C87.6923 54.5524 88.4329 55.3956 88.4329 56.5078C88.4329 57.6201 87.6923 58.4633 86.593 58.4633C85.4418 58.4633 84.7381 57.5814 84.7381 56.5078ZM89.6855 56.5078V53.4534H88.3557V54.1956C87.9348 53.6454 87.2951 53.3004 86.4263 53.3004C84.713 53.3004 83.3712 54.6431 83.3712 56.5078C83.3712 58.3741 84.713 59.7152 86.4263 59.7152C87.2951 59.7152 87.9348 59.3703 88.3557 58.8216V59.562H89.6855V56.5078ZM77.2355 56.5078C77.2355 58.3605 78.5265 59.7152 80.4944 59.7152C81.4151 59.7152 82.0293 59.5115 82.693 58.9866L82.0547 57.913C81.5563 58.2713 81.0315 58.4633 80.4573 58.4633C79.3951 58.4499 78.6158 57.6839 78.6158 56.5078C78.6158 55.333 79.3951 54.5659 80.4573 54.5524C81.0315 54.5524 81.5563 54.7443 82.0547 55.1026L82.693 54.029C82.0293 53.5057 81.4151 53.3004 80.4944 53.3004C78.5265 53.3004 77.2355 54.6551 77.2355 56.5078ZM94.3635 53.3004C93.5977 53.3004 93.0993 53.6587 92.7542 54.1956V53.4534H91.4378V59.562H92.766V56.1375C92.766 55.128 93.2019 54.5659 94.0707 54.5659C94.3383 54.5659 94.6194 54.6044 94.9021 54.719L95.3097 53.467C95.0167 53.3524 94.6329 53.3004 94.3635 53.3004ZM58.7505 53.9398C58.1124 53.5175 57.2303 53.3004 56.2589 53.3004C54.712 53.3004 53.7154 54.0424 53.7154 55.2559C53.7154 56.2521 54.4561 56.8661 55.8231 57.0581L56.4509 57.1473C57.1782 57.2498 57.5233 57.4402 57.5233 57.7852C57.5233 58.258 57.0385 58.5271 56.131 58.5271C55.2103 58.5271 54.5453 58.2329 54.0977 57.8877L53.4714 58.9228C54.2002 59.4595 55.1211 59.7152 56.1176 59.7152C57.8817 59.7152 58.9053 58.8856 58.9053 57.7226C58.9053 56.6491 58.0989 56.087 56.7691 55.8951L56.143 55.8046C55.5687 55.7287 55.1078 55.6142 55.1078 55.2051C55.1078 54.7577 55.5421 54.4885 56.2709 54.4885C57.0518 54.4885 57.8045 54.783 58.1763 55.0134L58.7505 53.9398ZM75.8936 53.3004C75.1261 53.3004 74.6277 53.6587 74.2826 54.1956V53.4534H72.9664V59.562H74.2947V56.1375C74.2947 55.128 74.7305 54.5659 75.5991 54.5659C75.8667 54.5659 76.1495 54.6044 76.4307 54.719L76.8396 53.467C76.5451 53.3524 76.1613 53.3004 75.8936 53.3004ZM64.5547 53.4534H62.3815V51.6007H61.0396V53.4534H59.7991V54.6685H61.0396V57.4535C61.0396 58.8721 61.5885 59.7152 63.1608 59.7152C63.7366 59.7152 64.4014 59.5369 64.8224 59.2424L64.4401 58.105C64.043 58.3354 63.6087 58.4499 63.2636 58.4499C62.5986 58.4499 62.3815 58.0409 62.3815 57.4282V54.6685H64.5547V53.4534ZM44.6895 59.562V55.7287C44.6895 54.2848 43.7701 53.3138 42.2873 53.3004C41.5077 53.2884 40.7014 53.5308 40.1392 54.3873C39.7182 53.7092 39.0534 53.3004 38.1192 53.3004C37.4676 53.3004 36.8282 53.4921 36.3298 54.2074V53.4534H35V59.562H36.3431V56.1762C36.3431 55.1144 36.9307 54.5524 37.838 54.5524C38.7202 54.5524 39.1678 55.128 39.1678 56.1629V59.562H40.5096V56.1762C40.5096 55.1144 41.1239 54.5524 42.006 54.5524C42.9133 54.5524 43.3476 55.128 43.3476 56.1629V59.562H44.6895Z" fill="white"/>
</svg>
