<?xml version="1.0" encoding="UTF-8"?>
<svg width="140px" height="70px" viewBox="0 0 140 70" version="1.1" xmlns="http://www.w3.org/2000/svg" xmlns:xlink="http://www.w3.org/1999/xlink">
    <!-- Generator: Sketch 50.2 (55047) - http://www.bohemiancoding.com/sketch -->
    <title>visa</title>
    <desc>Created with Sketch.</desc>
    <defs>
        <linearGradient x1="0%" y1="100%" x2="100%" y2="100%" id="linearGradient-1">
            <stop stop-color="#2D336C" offset="0%"></stop>
            <stop stop-color="#2E3F7F" offset="34.2055963%"></stop>
            <stop stop-color="#305DAF" offset="100%"></stop>
        </linearGradient>
    </defs>
    <g id="visa" stroke="none" stroke-width="1" fill="none" fill-rule="evenodd">
        <g transform="translate(26.000000, 22.000000)" fill="url(#linearGradient-1)" fill-rule="nonzero" id="Shape">
            <path d="M42.086412,0.47762264 L36.4067593,26.5916597 L29.5375,26.5916597 L35.2195139,0.47762264 L42.086412,0.47762264 Z M78.6474306,26.5916597 L77.8175,22.6901717 L69.0062269,22.6901717 L67.5734259,26.5916597 L60.3629861,26.5916597 L70.6688426,2.39275782 C71.1623148,1.23121362 72.2740046,0.47762264 73.5926852,0.47762264 L79.4549306,0.47762264 L85,26.5916597 L78.6474306,26.5916597 Z M70.9832639,17.3387855 L76.6802315,17.3387855 L74.598912,7.53358755 L70.9832639,17.3387855 Z M51.0975926,7.7135669 C51.1188426,6.77728719 52.0255093,5.78178847 54.0108102,5.52672095 C54.9934259,5.40054187 57.7075231,5.30261762 60.7820833,6.69484504 L61.9890046,1.15767367 C60.3350463,0.56741879 58.2096528,0 55.5628472,0 C48.7746528,0 43.9957639,3.55004444 43.9575926,8.6316552 C43.912338,12.3930302 47.3678241,14.4889188 49.9713426,15.7394851 C52.646088,17.0190802 53.5433102,17.8400183 53.5334722,18.9845322 C53.5134028,20.7374925 51.3990278,21.510049 49.4223843,21.5402391 C45.9692593,21.5932653 43.9650694,20.6221509 42.3681713,19.8902348 L41.1246528,25.6128043 C42.7278472,26.3373663 45.6902546,26.9690358 48.7624537,27 C55.9784028,27 60.6974769,23.4956277 60.7199074,18.0648958 C60.7506019,11.1734281 51.0306944,10.7929556 51.0975926,7.7135669 Z M21.14375,26.5916597 L13.8837269,26.5916597 L8.4075231,5.75082428 C8.075,4.46774563 7.7865509,3.99670289 6.77560185,3.45715187 C5.12479167,2.57505949 2.39849537,1.74831561 0,1.2346971 L0.16173611,0.47762264 L11.8496296,0.47762264 C13.3383102,0.47762264 14.6786343,1.45183348 15.0166667,3.13976892 L17.9090278,18.251455 L25.0576852,0.47762264 L32.2720602,0.47762264 L21.14375,26.5916597 Z"></path>
        </g>
    </g>
</svg>