<?xml version="1.0" encoding="UTF-8"?>
<svg width="140px" height="70px" viewBox="0 0 140 70" version="1.1" xmlns="http://www.w3.org/2000/svg" xmlns:xlink="http://www.w3.org/1999/xlink">
    <!-- Generator: Sketch 50.2 (55047) - http://www.bohemiancoding.com/sketch -->
    <title>MIR</title>
    <desc>Created with Sketch.</desc>
    <defs>
        <linearGradient x1="-1.11022302e-14%" y1="50%" x2="100%" y2="50%" id="linearGradient-1">
            <stop stop-color="#3EADFF" offset="0%"></stop>
            <stop stop-color="#335CDD" offset="100%"></stop>
        </linearGradient>
    </defs>
    <g id="MIR" stroke="none" stroke-width="1" fill="none" fill-rule="evenodd">
        <g id="Group" transform="translate(23.000000, 22.000000)">
            <path d="M52.8582143,2.91636 C53.6492857,1.18836 55.365,0.08172 57.2532143,0.08172 L64.4425,0.08172 L64.4425,26.91828 L55.9714286,26.91828 L55.9714286,11.06028 L55.3660714,11.06028 L49.4028571,24.08364 C48.6117857,25.81164 46.8960714,26.91828 45.0078571,26.91828 L37.8185714,26.91828 L37.8185714,0.08172 L46.29,0.08172 L46.29,15.93972 L46.895,15.93972 L52.8582143,2.91636 Z M21.0767857,3.60864 C21.6746429,1.51992 23.5714286,0.08172 25.7278571,0.08172 L34.1878571,0.08172 L34.1878571,26.91828 L25.7167857,26.91828 L25.7167857,11.06028 L25.1117857,11.06028 L20.2710714,26.91828 L14.22,26.91828 L9.37928571,11.06028 L8.77428571,11.06028 L8.77428571,26.91828 L0.303214286,26.91828 L0.303214286,0.08172 L8.76321429,0.08172 C10.92,0.08172 12.8164286,1.51992 13.4142857,3.60864 L16.9428571,15.93972 L17.5482143,15.93972 L21.0767857,3.60864 Z M68.0728571,12.27996 L94.1692857,12.27996 C92.9221429,15.831 89.5707143,18.37944 85.6207143,18.37944 L76.5275,18.37944 L76.5275,26.91828 L68.0728571,26.91828 L68.0728571,12.27996 Z" id="Combined-Shape" fill="#1B6847"></path>
            <path d="M85.6207143,0.08172 L66.8628571,0.08172 C68.0014286,6.32664 73.4232143,11.06028 79.9478571,11.06028 L94.5146429,11.06028 C94.6335714,10.46916 94.6967857,9.85716 94.6967857,9.23076 C94.6967857,4.1778 90.6332143,0.08172 85.6207143,0.08172" id="Fill-4" fill="url(#linearGradient-1)"></path>
        </g>
    </g>
</svg>